<?xml version="1.0" standalone="no"?>
<!DOCTYPE svg PUBLIC "-//W3C//DTD SVG 20010904//EN"
 "http://www.w3.org/TR/2001/REC-SVG-20010904/DTD/svg10.dtd">
<svg version="1.0" xmlns="http://www.w3.org/2000/svg"
 width="1500.000000pt" height="1500.000000pt" viewBox="0 0 1500.000000 1500.000000"
 preserveAspectRatio="xMidYMid meet">

<g transform="translate(0.000000,1500.000000) scale(0.100000,-0.100000)"
fill="#000000" stroke="none">
<path d="M7570 12063 c0 -12 21 -29 58 -48 143 -74 336 -220 496 -375 226
-219 409 -467 545 -738 28 -55 55 -103 60 -106 5 -3 14 1 21 9 27 32 -200 413
-376 630 -187 231 -464 471 -694 602 -81 46 -110 53 -110 26z"/>
<path d="M4014 11488 c-365 -374 -649 -882 -784 -1403 -45 -174 -82 -368 -74
-390 15 -39 40 -6 49 65 22 172 102 466 181 668 97 245 262 541 414 743 79
104 203 249 264 309 44 43 60 80 33 80 -7 0 -44 -33 -83 -72z"/>
<path d="M3161 9060 c-29 -17 25 -420 84 -625 71 -245 209 -545 252 -545 26 0
23 23 -12 80 -93 153 -180 382 -229 600 -30 137 -56 327 -56 414 0 66 -14 92
-39 76z"/>
<path d="M7665 8441 c-456 -609 -584 -800 -705 -1055 -81 -169 -121 -276 -173
-461 -86 -306 -126 -532 -159 -890 -15 -164 -17 -844 -4 -1256 l8 -276 -138
-6 c-77 -4 -327 -10 -556 -14 l-417 -6 5 154 c3 85 12 285 20 444 33 691 36
792 31 1070 -8 391 -40 669 -107 930 -38 147 -68 230 -132 359 -101 202 -187
324 -342 484 -133 137 -227 208 -819 616 -94 64 -132 78 -132 46 0 -8 135
-108 300 -222 403 -279 453 -317 574 -433 213 -205 357 -430 464 -725 66 -182
108 -399 139 -715 22 -233 12 -1016 -18 -1325 l-7 -65 -18 85 c-63 285 -190
522 -378 703 -85 82 -184 157 -207 157 -7 0 -14 -6 -17 -14 -6 -15 13 -35 89
-89 73 -52 201 -190 263 -282 182 -273 251 -546 251 -992 l0 -186 -272 6
c-187 4 -330 13 -453 27 -242 30 -260 30 -260 5 0 -20 40 -29 219 -49 32 -3
111 -12 175 -19 146 -15 1005 -15 1561 1 217 6 512 14 655 18 143 3 364 9 490
13 l230 6 3 24 4 24 -229 -7 c-613 -18 -917 -26 -919 -23 -9 9 -26 546 -21
667 12 297 77 529 213 764 117 202 307 400 512 532 51 33 66 59 38 70 -27 10
-227 -136 -329 -240 -200 -206 -334 -437 -427 -736 l-20 -65 6 195 c18 684
126 1207 344 1666 122 258 236 430 660 994 167 223 304 414 304 425 2 59 -40
12 -299 -334z"/>
<path d="M7702 3608 c-170 -59 -359 -80 -897 -98 -650 -23 -1475 -13 -2165 25
-282 16 -318 18 -337 16 -16 -1 -17 -27 -2 -37 14 -8 301 -28 674 -46 372 -18
1835 -18 2115 0 319 21 530 55 675 109 37 14 51 24 53 41 4 28 -10 27 -116
-10z"/>
<path d="M7575 2709 c-220 -38 -636 -89 -880 -109 -714 -56 -1521 -32 -2243
66 -94 13 -126 14 -134 6 -25 -25 17 -40 182 -61 1085 -141 2174 -117 3220 72
110 20 125 25 125 42 0 29 -21 28 -270 -16z"/>
<path d="M7445 1984 c-254 -59 -701 -104 -1200 -121 -355 -13 -895 -10 -1030
5 -179 20 -415 58 -548 89 -101 23 -120 25 -127 12 -16 -25 13 -39 147 -66
l131 -28 7 -95 c11 -155 41 -342 56 -351 29 -18 32 11 16 143 -9 73 -20 170
-23 214 l-7 81 54 -8 c119 -20 376 -49 425 -49 l53 0 6 -47 c10 -66 63 -392
71 -426 4 -22 11 -27 27 -25 26 4 27 -13 -13 228 -17 102 -33 201 -36 221 l-5
36 387 7 c213 3 388 5 390 3 2 -1 8 -81 14 -177 17 -280 35 -367 67 -328 8 9
7 50 -2 138 -24 231 -29 369 -14 374 8 2 121 9 253 15 131 6 283 16 338 22 55
6 101 9 103 7 1 -1 13 -95 25 -208 12 -113 24 -208 27 -212 7 -13 33 -9 39 6
3 8 -1 67 -10 132 -8 66 -18 157 -21 204 l-7 85 155 23 c86 13 200 33 254 45
84 19 98 25 98 42 0 25 -22 27 -100 9z"/>
</g>
</svg>
